<svg width="212" height="34" viewBox="0 0 212 34" fill="none" xmlns="http://www.w3.org/2000/svg">
<path d="M20.984 9.56V25.4H17.936L11.816 15.416L10.28 12.608H10.256L10.352 15.176V25.4H8V9.56H11.024L17.12 19.52L18.68 22.376H18.704L18.608 19.784V9.56H20.984Z" fill="url(#paint0_linear_12_52)"/>
<path d="M30.4278 25.64C29.2278 25.64 28.1718 25.392 27.2598 24.896C26.3638 24.4 25.6598 23.688 25.1478 22.76C24.6358 21.816 24.3798 20.696 24.3798 19.4C24.3798 18.104 24.6278 16.992 25.1238 16.064C25.6358 15.12 26.3318 14.4 27.2118 13.904C28.1078 13.408 29.1318 13.16 30.2838 13.16C31.4518 13.16 32.4438 13.4 33.2598 13.88C34.0758 14.36 34.6998 15.016 35.1318 15.848C35.5638 16.68 35.7798 17.624 35.7798 18.68C35.7798 18.984 35.7718 19.264 35.7558 19.52C35.7398 19.776 35.7158 19.992 35.6838 20.168H26.8998C27.0118 21.288 27.3718 22.144 27.9798 22.736C28.6038 23.312 29.4038 23.6 30.3798 23.6C31.1798 23.6 31.8278 23.448 32.3238 23.144C32.8198 22.84 33.2118 22.416 33.4998 21.872L35.5398 22.832C35.1238 23.712 34.4598 24.4 33.5478 24.896C32.6518 25.392 31.6118 25.64 30.4278 25.64ZM30.2358 15.2C29.3558 15.2 28.6278 15.456 28.0518 15.968C27.4918 16.48 27.1318 17.224 26.9718 18.2H33.2838C33.2198 17.24 32.9158 16.504 32.3718 15.992C31.8278 15.464 31.1158 15.2 30.2358 15.2Z" fill="url(#paint1_linear_12_52)"/>
<path d="M49.1278 9.56V11.768H43.7038V25.4H41.1357V11.768H35.7118V9.56H49.1278Z" fill="url(#paint2_linear_12_52)"/>
<path d="M56.4588 17.696C56.4588 16.896 56.2348 16.28 55.7868 15.848C55.3548 15.4 54.7548 15.176 53.9868 15.176C53.2668 15.176 52.6428 15.344 52.1148 15.68C51.6028 16.016 51.2348 16.56 51.0108 17.312L48.8508 16.4C49.1548 15.424 49.7468 14.64 50.6268 14.048C51.5228 13.456 52.6748 13.16 54.0828 13.16C55.0268 13.16 55.8668 13.32 56.6028 13.64C57.3548 13.944 57.9388 14.416 58.3548 15.056C58.7868 15.68 59.0028 16.472 59.0028 17.432V22.784C59.0028 23.376 59.2988 23.672 59.8908 23.672C60.1788 23.672 60.4588 23.632 60.7308 23.552L60.5868 25.328C60.2188 25.504 59.7548 25.592 59.1948 25.592C58.5548 25.592 58.0028 25.448 57.5388 25.16C57.0748 24.872 56.7628 24.44 56.6028 23.864C56.2188 24.456 55.6668 24.904 54.9468 25.208C54.2268 25.496 53.5068 25.64 52.7868 25.64C51.6508 25.64 50.7068 25.368 49.9548 24.824C49.2028 24.28 48.8268 23.464 48.8268 22.376C48.8268 21.496 49.1148 20.768 49.6908 20.192C50.2828 19.616 51.1148 19.216 52.1868 18.992L56.4588 18.152V17.696ZM51.4188 22.184C51.4188 22.632 51.5868 22.992 51.9228 23.264C52.2748 23.52 52.7388 23.648 53.3148 23.648C53.8588 23.648 54.3708 23.56 54.8508 23.384C55.3308 23.208 55.7148 22.92 56.0028 22.52C56.3068 22.12 56.4588 21.6 56.4588 20.96V19.952L53.4348 20.576C52.7468 20.704 52.2348 20.888 51.8988 21.128C51.5788 21.368 51.4188 21.72 51.4188 22.184Z" fill="url(#paint3_linear_12_52)"/>
<path d="M67.7703 25.64C66.5703 25.64 65.4743 25.408 64.4823 24.944C63.4903 24.48 62.7063 23.824 62.1303 22.976L63.9063 21.44C64.2583 22.096 64.7623 22.624 65.4183 23.024C66.0903 23.408 66.8903 23.6 67.8183 23.6C68.5543 23.6 69.1383 23.472 69.5703 23.216C70.0023 22.96 70.2183 22.6 70.2183 22.136C70.2183 21.832 70.1143 21.568 69.9063 21.344C69.7143 21.104 69.3383 20.92 68.7783 20.792L66.2583 20.264C64.9783 20.008 64.0663 19.592 63.5223 19.016C62.9783 18.44 62.7063 17.72 62.7063 16.856C62.7063 16.2 62.8983 15.592 63.2823 15.032C63.6823 14.472 64.2503 14.024 64.9863 13.688C65.7223 13.336 66.6103 13.16 67.6503 13.16C68.8343 13.16 69.8503 13.376 70.6983 13.808C71.5623 14.224 72.2183 14.824 72.6663 15.608L70.8903 17.096C70.5703 16.456 70.1143 15.984 69.5223 15.68C68.9463 15.36 68.3383 15.2 67.6983 15.2C66.9143 15.2 66.3063 15.344 65.8743 15.632C65.4583 15.904 65.2503 16.264 65.2503 16.712C65.2503 17.016 65.3703 17.296 65.6103 17.552C65.8503 17.792 66.2823 17.976 66.9063 18.104L69.6423 18.68C70.7943 18.904 71.6023 19.288 72.0663 19.832C72.5463 20.36 72.7863 21.008 72.7863 21.776C72.7863 22.928 72.3383 23.864 71.4423 24.584C70.5463 25.288 69.3223 25.64 67.7703 25.64Z" fill="url(#paint4_linear_12_52)"/>
<path d="M87.2414 13.4L82.6574 18.104L87.5294 25.4H84.5534L80.8574 19.76L78.4814 22.208V25.4H75.9134V8H78.4814V19.256L84.1934 13.4H87.2414Z" fill="url(#paint5_linear_12_52)"/>
<path d="M100.17 23.192H108.906V25.4H97.6016V9.56H100.17V23.192Z" fill="white"/>
<path d="M118.545 17.696C118.545 16.896 118.321 16.28 117.873 15.848C117.441 15.4 116.841 15.176 116.073 15.176C115.353 15.176 114.729 15.344 114.201 15.68C113.689 16.016 113.321 16.56 113.097 17.312L110.937 16.4C111.241 15.424 111.833 14.64 112.713 14.048C113.609 13.456 114.761 13.16 116.169 13.16C117.113 13.16 117.953 13.32 118.689 13.64C119.441 13.944 120.025 14.416 120.441 15.056C120.873 15.68 121.089 16.472 121.089 17.432V22.784C121.089 23.376 121.385 23.672 121.977 23.672C122.265 23.672 122.545 23.632 122.817 23.552L122.673 25.328C122.305 25.504 121.841 25.592 121.281 25.592C120.641 25.592 120.089 25.448 119.625 25.16C119.161 24.872 118.849 24.44 118.689 23.864C118.305 24.456 117.753 24.904 117.033 25.208C116.313 25.496 115.593 25.64 114.873 25.64C113.737 25.64 112.793 25.368 112.041 24.824C111.289 24.28 110.913 23.464 110.913 22.376C110.913 21.496 111.201 20.768 111.777 20.192C112.369 19.616 113.201 19.216 114.273 18.992L118.545 18.152V17.696ZM113.505 22.184C113.505 22.632 113.673 22.992 114.009 23.264C114.361 23.52 114.825 23.648 115.401 23.648C115.945 23.648 116.457 23.56 116.937 23.384C117.417 23.208 117.801 22.92 118.089 22.52C118.393 22.12 118.545 21.6 118.545 20.96V19.952L115.521 20.576C114.833 20.704 114.321 20.888 113.985 21.128C113.665 21.368 113.505 21.72 113.505 22.184Z" fill="white"/>
<path d="M129.568 25.64C128.784 25.64 128.056 25.496 127.384 25.208C126.728 24.92 126.2 24.456 125.8 23.816C125.4 23.176 125.2 22.344 125.2 21.32V13.4H127.768V20.672C127.768 21.76 127.992 22.512 128.44 22.928C128.904 23.328 129.56 23.528 130.408 23.528C130.952 23.528 131.464 23.408 131.944 23.168C132.424 22.912 132.808 22.52 133.096 21.992C133.4 21.448 133.552 20.752 133.552 19.904V13.4H136.12V25.4H133.864L133.744 23.456C133.328 24.208 132.768 24.76 132.064 25.112C131.36 25.464 130.528 25.64 129.568 25.64Z" fill="white"/>
<path d="M140.132 25.4V13.4H142.412L142.532 15.464C142.932 14.664 143.484 14.08 144.188 13.712C144.908 13.344 145.708 13.16 146.588 13.16C147.436 13.16 148.196 13.328 148.868 13.664C149.556 13.984 150.1 14.48 150.5 15.152C150.9 15.808 151.1 16.632 151.1 17.624V25.4H148.532V18.416C148.532 17.232 148.284 16.416 147.788 15.968C147.308 15.504 146.7 15.272 145.964 15.272C145.436 15.272 144.924 15.392 144.428 15.632C143.932 15.872 143.516 16.272 143.18 16.832C142.86 17.376 142.7 18.104 142.7 19.016V25.4H140.132Z" fill="white"/>
<path d="M160.176 13.16C161.6 13.16 162.736 13.472 163.584 14.096C164.432 14.72 165.04 15.528 165.408 16.52L162.984 17.48C162.776 16.744 162.44 16.184 161.976 15.8C161.528 15.4 160.936 15.2 160.2 15.2C159.128 15.2 158.288 15.568 157.68 16.304C157.088 17.024 156.792 18.064 156.792 19.424C156.792 20.768 157.096 21.8 157.704 22.52C158.312 23.24 159.144 23.6 160.2 23.6C161.032 23.6 161.688 23.4 162.168 23C162.664 22.6 162.992 22.024 163.152 21.272L165.48 22.064C165.144 23.152 164.528 24.024 163.632 24.68C162.736 25.32 161.608 25.64 160.248 25.64C159.064 25.64 158.016 25.392 157.104 24.896C156.208 24.4 155.504 23.688 154.992 22.76C154.48 21.816 154.224 20.696 154.224 19.4C154.224 18.104 154.48 16.992 154.992 16.064C155.504 15.12 156.208 14.4 157.104 13.904C158 13.408 159.024 13.16 160.176 13.16Z" fill="white"/>
<path d="M168.468 25.4V8H171.036V15.32C171.436 14.568 171.972 14.024 172.644 13.688C173.332 13.336 174.092 13.16 174.924 13.16C175.772 13.16 176.532 13.328 177.204 13.664C177.892 13.984 178.436 14.48 178.836 15.152C179.236 15.808 179.436 16.632 179.436 17.624V25.4H176.868V18.44C176.868 17.24 176.62 16.416 176.124 15.968C175.644 15.504 175.036 15.272 174.3 15.272C173.772 15.272 173.26 15.4 172.764 15.656C172.268 15.896 171.852 16.296 171.516 16.856C171.196 17.4 171.036 18.136 171.036 19.064V25.4H168.468Z" fill="white"/>
<path d="M188.607 25.64C187.407 25.64 186.351 25.392 185.439 24.896C184.543 24.4 183.839 23.688 183.327 22.76C182.815 21.816 182.559 20.696 182.559 19.4C182.559 18.104 182.807 16.992 183.303 16.064C183.815 15.12 184.511 14.4 185.391 13.904C186.287 13.408 187.312 13.16 188.464 13.16C189.632 13.16 190.623 13.4 191.439 13.88C192.255 14.36 192.879 15.016 193.311 15.848C193.743 16.68 193.959 17.624 193.959 18.68C193.959 18.984 193.952 19.264 193.936 19.52C193.92 19.776 193.895 19.992 193.863 20.168H185.079C185.191 21.288 185.552 22.144 186.16 22.736C186.784 23.312 187.583 23.6 188.559 23.6C189.359 23.6 190.007 23.448 190.503 23.144C190.999 22.84 191.391 22.416 191.679 21.872L193.719 22.832C193.303 23.712 192.639 24.4 191.727 24.896C190.831 25.392 189.791 25.64 188.607 25.64ZM188.415 15.2C187.535 15.2 186.807 15.456 186.231 15.968C185.671 16.48 185.311 17.224 185.151 18.2H191.464C191.4 17.24 191.095 16.504 190.551 15.992C190.007 15.464 189.295 15.2 188.415 15.2Z" fill="white"/>
<path d="M197.202 25.4V13.4H199.386L199.626 15.56C200.282 13.96 201.539 13.16 203.395 13.16C203.635 13.16 203.875 13.184 204.115 13.232C204.355 13.264 204.554 13.32 204.714 13.4L204.354 15.656C204.178 15.592 203.979 15.544 203.755 15.512C203.547 15.464 203.259 15.44 202.891 15.44C202.379 15.44 201.882 15.576 201.402 15.848C200.938 16.104 200.547 16.504 200.227 17.048C199.923 17.576 199.77 18.24 199.77 19.04V25.4H197.202Z" fill="white"/>
<defs>
<linearGradient id="paint0_linear_12_52" x1="9.89448" y1="15.9357" x2="86.1373" y2="17.8315" gradientUnits="userSpaceOnUse">
<stop stop-color="#CD3EFF"/>
<stop offset="1" stop-color="#FF58D0"/>
</linearGradient>
<linearGradient id="paint1_linear_12_52" x1="9.89448" y1="15.9357" x2="86.1373" y2="17.8315" gradientUnits="userSpaceOnUse">
<stop stop-color="#CD3EFF"/>
<stop offset="1" stop-color="#FF58D0"/>
</linearGradient>
<linearGradient id="paint2_linear_12_52" x1="9.89448" y1="15.9357" x2="86.1373" y2="17.8315" gradientUnits="userSpaceOnUse">
<stop stop-color="#CD3EFF"/>
<stop offset="1" stop-color="#FF58D0"/>
</linearGradient>
<linearGradient id="paint3_linear_12_52" x1="9.89448" y1="15.9357" x2="86.1373" y2="17.8315" gradientUnits="userSpaceOnUse">
<stop stop-color="#CD3EFF"/>
<stop offset="1" stop-color="#FF58D0"/>
</linearGradient>
<linearGradient id="paint4_linear_12_52" x1="9.89448" y1="15.9357" x2="86.1373" y2="17.8315" gradientUnits="userSpaceOnUse">
<stop stop-color="#CD3EFF"/>
<stop offset="1" stop-color="#FF58D0"/>
</linearGradient>
<linearGradient id="paint5_linear_12_52" x1="9.89448" y1="15.9357" x2="86.1373" y2="17.8315" gradientUnits="userSpaceOnUse">
<stop stop-color="#CD3EFF"/>
<stop offset="1" stop-color="#FF58D0"/>
</linearGradient>
</defs>
</svg>
