<svg width="128" height="128" viewBox="0 0 128 128" fill="none" xmlns="http://www.w3.org/2000/svg">
<path fill-rule="evenodd" clip-rule="evenodd" d="M4.99991 64L34.4999 115H93.4999L123 64L93.4999 13H34.4999L4.99991 64ZM33.8171 11.8276L94.1827 11.8276L124.361 64L94.1827 116.172H33.8171L3.63892 64L33.8171 11.8276Z" fill="white" fill-opacity="0.5"/>
<path fill-rule="evenodd" clip-rule="evenodd" d="M35.1828 14.1724L7.03916 62.8276H63.3172L91.4608 14.1724L35.1828 14.1724ZM34.5 13L5 64H64L93.5 13H34.5Z" fill="url(#paint0_linear_106_65)"/>
<path fill-rule="evenodd" clip-rule="evenodd" d="M93.5 115L64 64H5L34.5 115H93.5ZM91.4608 113.828L63.3172 65.1724L7.03915 65.1724L35.1828 113.828H91.4608Z" fill="url(#paint1_linear_106_65)"/>
<path fill-rule="evenodd" clip-rule="evenodd" d="M93.5 13L64 64L93.5 115L123 64L93.5 13ZM93.5 15.3529L65.361 64L93.5 112.647L121.639 64L93.5 15.3529Z" fill="url(#paint2_linear_106_65)"/>
<defs>
<linearGradient id="paint0_linear_106_65" x1="5" y1="64" x2="49.0837" y2="35.6039" gradientUnits="userSpaceOnUse">
<stop stop-color="white"/>
<stop offset="1" stop-color="white" stop-opacity="0"/>
</linearGradient>
<linearGradient id="paint1_linear_106_65" x1="49.25" y1="89.2069" x2="34.3498" y2="115.083" gradientUnits="userSpaceOnUse">
<stop stop-color="white" stop-opacity="0"/>
<stop offset="1" stop-color="white"/>
</linearGradient>
<linearGradient id="paint2_linear_106_65" x1="93.5" y1="13" x2="93.5" y2="64" gradientUnits="userSpaceOnUse">
<stop stop-color="white"/>
<stop offset="1" stop-color="white" stop-opacity="0"/>
</linearGradient>
</defs>
</svg>
